Coordinates
version=1
nRows=12
nColumns=24
inDegrees=yes

Units are S.I. units (second, meters, Newtons, ...)
Angles are in degrees.

endheader
time	pelvis_tilt	pelvis_list	pelvis_rotation	pelvis_tx	pelvis_ty	pelvis_tz	hip_flexion_r	hip_adduction_r	hip_rotation_r	knee_angle_r	ankle_angle_r	subtalar_angle_r	mtp_angle_r	hip_flexion_l	hip_adduction_l	hip_rotation_l	knee_angle_l	ankle_angle_l	subtalar_angle_l	mtp_angle_l	lumbar_extension	lumbar_bending	lumbar_rotation
      3.94000000	    -15.01784290	    -10.23795877	      7.05511460	      1.46238213	     -0.02586729	     -0.49354860	     31.33931578	      7.77667188	    -11.46284298	    -18.87140352	     -5.38346637	      0.23011363	     10.35206583	     16.02451280	    -17.62593292	     -7.84009382	    -56.94460367	    -31.45279900	     14.99334350	     23.12334201	     14.32927291	     10.26647224	     -8.27499842
      3.94500000	    -14.95534723	    -10.15669384	      6.86028302	      1.46844028	     -0.02471225	     -0.49275576	     30.66140127	      7.96937198	    -11.19375097	    -18.45349088	     -5.23482827	      0.29058700	     10.37144801	     16.69870310	    -17.51188817	     -7.66377181	    -57.87249622	    -30.55082911	     14.01919765	     23.12857629	     14.21426871	     10.21584801	     -8.00125496
      3.95000000	    -14.90214279	    -10.06578199	      6.63095976	      1.47456543	     -0.02355314	     -0.49195024	     29.96753199	      8.16914805	    -10.87213063	    -17.99867801	     -5.10458378	      0.33988172	     10.37013368	     17.34240110	    -17.38974604	     -7.53303055	    -58.70811701	    -29.66092097	     13.21992213	     23.16653413	     14.12430195	     10.16487266	     -7.70247979
      3.95500000	    -14.84262313	     -9.91393658	      6.37954210	      1.48054083	     -0.02239938	     -0.49107614	     29.27858076	      8.32721242	    -10.43857725	    -17.57271345	     -4.97818393	      0.27339786	     10.31864134	     17.96704635	    -17.20177761	     -7.43486781	    -59.49228306	    -28.79376044	     12.57538841	     23.12509898	     13.98844682	     10.05221329	     -7.35018298
      3.96000000	    -14.79322527	     -9.76531965	      6.10013569	      1.48663578	     -0.02124496	     -0.49020183	     28.56760465	      8.49767473	     -9.97012767	    -17.09876563	     -4.87490020	      0.20567830	     10.22912905	     18.55799943	    -17.02144441	     -7.37620519	    -60.17194415	    -27.96879440	     12.07921753	     23.20244879	     13.89202062	      9.94916710	     -7.01557875
      3.96500000	    -14.73491811	     -9.56994739	      5.79523111	      1.49264271	     -0.02009077	     -0.48924835	     27.84882078	      8.63962069	     -9.40519787	    -16.63673460	     -4.77577183	      0.04155891	     10.07212303	     19.11576986	    -16.79465431	     -7.34312408	    -60.77842496	    -27.19059905	     11.75599257	     23.32056611	     13.76182167	      9.79919553	     -6.62366465
      3.97000000	    -14.67333045	     -9.36604708	      5.47323073	      1.49862942	     -0.01895176	     -0.48826345	     27.12196280	      8.77401359	     -8.82844205	    -16.16969415	     -4.68184597	     -0.13005828	      9.86825669	     19.65132609	    -16.56336400	     -7.32878824	    -61.31082725	    -26.45242855	     11.57814964	     23.52598824	     13.62774450	      9.64332481	     -6.21080641
      3.97500000	    -14.61023627	     -9.14051965	      5.14625391	      1.50456584	     -0.01782943	     -0.48727433	     26.39205146	      8.87836084	     -8.24493257	    -15.70269982	     -4.58581938	     -0.30198310	      9.63937301	     20.17319116	    -16.30557345	     -7.32623509	    -61.77276664	    -25.76036554	     11.49679790	     23.79777511	     13.48795403	      9.46606868	     -5.79016428
      3.98000000	    -14.55284080	     -8.90185605	      4.80500010	      1.51050184	     -0.01672812	     -0.48627025	     25.66336445	      8.96168295	     -7.67602253	    -15.23106135	     -4.49318503	     -0.44768253	      9.41857770	     20.68084451	    -16.03133388	     -7.33980081	    -62.16072941	    -25.09956712	     11.49289085	     24.12103259	     13.35590844	      9.27239383	     -5.36657734
      3.98500000	    -14.49321686	     -8.64597250	      4.45315159	      1.51639543	     -0.01565257	     -0.48525697	     24.93143677	      9.01917955	     -7.09937484	    -14.75788457	     -4.40433365	     -0.58263810	      9.20931248	     21.17335720	    -15.74199875	     -7.37805357	    -62.48542533	    -24.46258625	     11.55807288	     24.48064976	     13.22156791	      9.06479519	     -4.92951425
      3.99000000	    -14.43869592	     -8.37672290	      4.09280495	      1.52228041	     -0.01461144	     -0.48424018	     24.20128124	      9.05050125	     -6.53854527	    -14.27929996	     -4.31507543	     -0.68442306	      9.03302328	     21.65694884	    -15.43886139	     -7.43547548	    -62.74530920	    -23.84209510	     11.67202787	     24.86026952	     13.09705699	      8.84390179	     -4.49695039
      3.99500000	    -14.33996237	     -8.13400770	      3.70163891	      1.52811560	     -0.01357721	     -0.48316622	     23.41706466	      9.12300663	     -5.90425510	    -13.77951639	     -4.25326176	     -0.85524659	      8.77813378	     22.08369164	    -15.19325009	     -7.54640979	    -62.95467402	    -23.24726039	     11.77676956	     25.27295636	     12.91838134	      8.66161146	     -4.02735551
